<svg xmlns="http://www.w3.org/2000/svg" viewBox="0 0 135.2 135.2"><defs><style>.a{fill:none;stroke:#808285;stroke-miterlimit:10;stroke-width:3px;}.b{fill:#808285;}</style></defs><title>instagram</title><circle class="a" cx="67.6" cy="67.6" r="66.1" transform="translate(-0.52 134.68) rotate(-89.56)"/><path class="b" d="M39.63,82.33H34V54.89c0-8.35,4-13.11,7.37-15.63A21.85,21.85,0,0,1,54,35.05H81.4v5.67H54c-11.34,0-14.34,9.27-14.34,14.17Z"/><path class="b" d="M101.24,82.5H95.57V55.06c0-11.34-9.27-14.34-14.17-14.34V35.05c8.35,0,13.11,4,15.63,7.37a21.78,21.78,0,0,1,4.21,12.64Z"/><path class="b" d="M53.8,102.33c-8.35,0-13.11-4-15.63-7.37A21.75,21.75,0,0,1,34,82.33h5.67c0,11.34,9.27,14.34,14.17,14.34Z"/><path class="b" d="M81.23,102.33H53.8V96.67H81.23c11.35,0,14.34-9.27,14.34-14.17h5.67c0,8.35-4,13.11-7.37,15.63a21.84,21.84,0,0,1-12.64,4.2"/><path class="b" d="M67.69,57.18A11.54,11.54,0,1,0,79.22,68.71,11.54,11.54,0,0,0,67.69,57.18m0,28.74a17.21,17.21,0,1,1,17.2-17.21,17.23,17.23,0,0,1-17.2,17.21"/><path class="b" d="M90.1,50.62A4.34,4.34,0,1,0,85.76,55a4.34,4.34,0,0,0,4.34-4.34"/></svg>