<svg xmlns="http://www.w3.org/2000/svg" viewBox="0 0 135.2 135.2"><defs><style>.a,.c{fill:none;stroke:#808285;}.a{stroke-width:5.46px;}.b{fill:#808285;}.c{stroke-miterlimit:10;stroke-width:3px;}</style></defs><title>youtube</title><path class="a" d="M101.1,67.6v-.26h0c0-1.22,0-4.6-.25-7.86-.25-4.07.76-16.25-12.69-16.5-11.5-.22-18.5-.43-20.31-.49v0h-.5v0c-1.81.06-8.81.27-20.31.49-13.45.25-12.44,12.43-12.69,16.5-.2,3.26-.24,6.64-.25,7.86h0v.51h0c0,1.23,0,4.61.25,7.87C34.6,79.78,33.59,92,47,92.22c11.5.22,18.5.43,20.31.49v0h.5v0c1.81-.06,8.81-.27,20.31-.49,13.45-.26,12.44-12.44,12.69-16.5.2-3.26.24-6.64.25-7.87h0Z"/><polygon class="b" points="60.78 55.5 60.78 79.47 80.57 67.49 60.78 55.5"/><circle class="c" cx="67.6" cy="67.6" r="66.1" transform="translate(-0.51 134.69) rotate(-89.57)"/></svg>